<svg width="32" height="32" viewBox="0 0 32 32" fill="none" xmlns="http://www.w3.org/2000/svg">
<path d="M2 12.5815C2 11.6147 2.46592 10.7072 3.25152 10.1437L16 1L28.7485 10.1437C29.5341 10.7072 30 11.6147 30 12.5815V28.5C30 29.8807 28.8807 31 27.5 31H21.2C20.6477 31 20.2 30.5523 20.2 30V21.2727C20.2 20.9966 19.9761 20.7727 19.7 20.7727H12.3C12.0239 20.7727 11.8 20.9966 11.8 21.2727V30C11.8 30.5523 11.3523 31 10.8 31H4.5C3.11929 31 2 29.8807 2 28.5V12.5815Z" stroke="#262338" stroke-width="2" stroke-linecap="round" stroke-linejoin="round"/>
</svg>
